<?plantuml 1.2026.2beta3?><svg xmlns="http://www.w3.org/2000/svg" xmlns:xlink="http://www.w3.org/1999/xlink" contentStyleType="text/css" data-diagram-type="DESCRIPTION" height="585px" preserveAspectRatio="none" style="width:3503px;height:585px;background:#FEFEFE;" version="1.1" viewBox="0 0 3503 585" width="3503px" zoomAndPan="magnify"><title>Chain 4: All Subsystems -&gt; Visualization (OME-Zarr Export)</title><defs/><g><rect fill="#FEFEFE" height="585" style="stroke:none;stroke-width:1;" width="3503" x="0" y="0"/><g class="title" data-source-line="5"><text fill="#000000" font-family="sans-serif" font-size="14" font-weight="bold" lengthAdjust="spacing" textLength="467.749" x="1510.6754" y="22.9951">Chain 4: All Subsystems -&gt; Visualization (OME-Zarr Export)</text></g><!--entity dd001--><g class="entity" data-qualified-name="dd001" data-source-line="7" id="ent0002"><rect fill="#90EE90" height="36.2969" rx="2.5" ry="2.5" style="stroke:#181818;stroke-width:0.5;" width="328.0205" x="7" y="44.2969"/><text fill="#000000" font-family="sans-serif" font-size="14" lengthAdjust="spacing" textLength="308.0205" x="17" y="67.292">DD001: neural/voltage/, calcium/, positions/</text></g><!--entity dd002--><g class="entity" data-qualified-name="dd002" data-source-line="8" id="ent0003"><rect fill="#90EE90" height="36.2969" rx="2.5" ry="2.5" style="stroke:#181818;stroke-width:0.5;" width="274.1055" x="369.96" y="44.2969"/><text fill="#000000" font-family="sans-serif" font-size="14" lengthAdjust="spacing" textLength="254.1055" x="379.96" y="67.292">DD002: muscle/activation/, calcium/</text></g><!--entity dd003--><g class="entity" data-qualified-name="dd003" data-source-line="9" id="ent0004"><rect fill="#90EE90" height="36.2969" rx="2.5" ry="2.5" style="stroke:#181818;stroke-width:0.5;" width="236.4395" x="678.79" y="44.2969"/><text fill="#000000" font-family="sans-serif" font-size="14" lengthAdjust="spacing" textLength="216.4395" x="688.79" y="67.292">DD003: body/positions/, types/</text></g><!--entity dd004--><g class="entity" data-qualified-name="dd004" data-source-line="10" id="ent0005"><rect fill="#FFE4B5" height="36.2969" rx="2.5" ry="2.5" style="stroke:#181818;stroke-width:0.5;" width="243.2002" x="950.41" y="44.2969"/><text fill="#000000" font-family="sans-serif" font-size="14" lengthAdjust="spacing" textLength="223.2002" x="960.41" y="67.292">DD004: body/cell_ids/ [Phase 4]</text></g><!--entity dd005--><g class="entity" data-qualified-name="dd005" data-source-line="11" id="ent0006"><rect fill="#FFE4B5" height="36.2969" rx="2.5" ry="2.5" style="stroke:#181818;stroke-width:0.5;" width="293.3076" x="1228.36" y="44.2969"/><text fill="#000000" font-family="sans-serif" font-size="14" lengthAdjust="spacing" textLength="273.3076" x="1238.36" y="67.292">DD005: neural/neuron_class/ [Phase 1]</text></g><!--entity dd006--><g class="entity" data-qualified-name="dd006" data-source-line="12" id="ent0007"><rect fill="#FFE4B5" height="36.2969" rx="2.5" ry="2.5" style="stroke:#181818;stroke-width:0.5;" width="362.9111" x="1556.55" y="44.2969"/><text fill="#000000" font-family="sans-serif" font-size="14" lengthAdjust="spacing" textLength="342.9111" x="1566.55" y="67.292">DD006: neuropeptides/concentrations/ [Phase 2]</text></g><!--entity dd007--><g class="entity" data-qualified-name="dd007" data-source-line="13" id="ent0008"><rect fill="#FFE4B5" height="36.2969" rx="2.5" ry="2.5" style="stroke:#181818;stroke-width:0.5;" width="319.3525" x="1954.33" y="44.2969"/><text fill="#000000" font-family="sans-serif" font-size="14" lengthAdjust="spacing" textLength="299.3525" x="1964.33" y="67.292">DD007: pharynx/pumping_state/ [Phase 3]</text></g><!--entity dd009--><g class="entity" data-qualified-name="dd009" data-source-line="14" id="ent0009"><rect fill="#FFE4B5" height="36.2969" rx="2.5" ry="2.5" style="stroke:#181818;stroke-width:0.5;" width="272.7041" x="2308.66" y="44.2969"/><text fill="#000000" font-family="sans-serif" font-size="14" lengthAdjust="spacing" textLength="252.7041" x="2318.66" y="67.292">DD009: intestine/calcium/ [Phase 3]</text></g><!--entity dd018--><g class="entity" data-qualified-name="dd018" data-source-line="15" id="ent0010"><rect fill="#FFE4B5" height="36.2969" rx="2.5" ry="2.5" style="stroke:#181818;stroke-width:0.5;" width="352.5479" x="2616.74" y="44.2969"/><text fill="#000000" font-family="sans-serif" font-size="14" lengthAdjust="spacing" textLength="332.5479" x="2626.74" y="67.292">DD018: egglaying/muscle_activation/ [Phase 3]</text></g><!--entity dd019--><g class="entity" data-qualified-name="dd019" data-source-line="16" id="ent0011"><rect fill="#FFE4B5" height="36.2969" rx="2.5" ry="2.5" style="stroke:#181818;stroke-width:0.5;" width="251.9775" x="3004.02" y="44.2969"/><text fill="#000000" font-family="sans-serif" font-size="14" lengthAdjust="spacing" textLength="231.9775" x="3014.02" y="67.292">DD019: sensory/strain/ [Phase 2]</text></g><!--entity dd010--><g class="entity" data-qualified-name="dd010" data-source-line="17" id="ent0012"><rect fill="#FFE4B5" height="36.2969" rx="2.5" ry="2.5" style="stroke:#181818;stroke-width:0.5;" width="206.1699" x="3290.93" y="44.2969"/><text fill="#000000" font-family="sans-serif" font-size="14" lengthAdjust="spacing" textLength="186.1699" x="3300.93" y="67.292">DD010: validation/reports/</text></g><!--entity dd013--><g class="entity" data-qualified-name="dd013" data-source-line="19" id="ent0013"><rect fill="#FFF9C4" height="68.8906" rx="2.5" ry="2.5" style="stroke:#181818;stroke-width:0.5;" width="172.3389" x="1651.84" y="140.5869"/><text fill="#000000" font-family="sans-serif" font-size="14" lengthAdjust="spacing" textLength="106.8525" x="1684.5832" y="163.582">DD013 Step 4b</text><text fill="#000000" font-family="sans-serif" font-size="14" lengthAdjust="spacing" textLength="152.3389" x="1661.84" y="179.8789">master_openworm.py</text><text fill="#000000" font-family="sans-serif" font-size="14" lengthAdjust="spacing" textLength="116.7236" x="1679.6476" y="196.1757">OME-Zarr export</text></g><!--entity zarr--><g class="entity" data-qualified-name="zarr" data-source-line="20" id="ent0014"><rect fill="#E0E0E0" height="52.5938" rx="2.5" ry="2.5" style="stroke:#181818;stroke-width:0.5;" width="181.8477" x="1647.09" y="269.4869"/><text fill="#000000" font-family="sans-serif" font-size="14" lengthAdjust="spacing" textLength="161.8477" x="1657.09" y="292.482">output/openworm.zarr/</text><text fill="#000000" font-family="sans-serif" font-size="14" lengthAdjust="spacing" textLength="117.7695" x="1679.1291" y="308.7789">(OME-Zarr store)</text></g><!--entity dd014--><g class="entity" data-qualified-name="dd014" data-source-line="21" id="ent0015"><rect fill="#E8EAF6" height="68.8906" rx="2.5" ry="2.5" style="stroke:#181818;stroke-width:0.5;" width="176.9531" x="1649.53" y="382.0769"/><text fill="#000000" font-family="sans-serif" font-size="14" lengthAdjust="spacing" textLength="48.2822" x="1713.8654" y="405.072">DD014</text><text fill="#000000" font-family="sans-serif" font-size="14" lengthAdjust="spacing" textLength="156.9531" x="1659.53" y="421.3689">Trame/Three.js viewer</text><text fill="#000000" font-family="sans-serif" font-size="14" lengthAdjust="spacing" textLength="128.1602" x="1673.9265" y="437.6657">reads and renders</text></g><!--entity dd0141--><g class="entity" data-qualified-name="dd0141" data-source-line="22" id="ent0016"><rect fill="#E8EAF6" height="68.8906" rx="2.5" ry="2.5" style="stroke:#181818;stroke-width:0.5;" width="138.0977" x="1575.96" y="510.9669"/><text fill="#000000" font-family="sans-serif" font-size="14" lengthAdjust="spacing" textLength="61.6396" x="1614.189" y="533.962">DD014.1</text><text fill="#000000" font-family="sans-serif" font-size="14" lengthAdjust="spacing" textLength="107.3584" x="1591.3296" y="550.2589">Color mapping:</text><text fill="#000000" font-family="sans-serif" font-size="14" lengthAdjust="spacing" textLength="118.0977" x="1585.96" y="566.5557">activity -&gt; visual</text></g><!--entity dd0142--><g class="entity" data-qualified-name="dd0142" data-source-line="23" id="ent0017"><rect fill="#E8EAF6" height="68.8906" rx="2.5" ry="2.5" style="stroke:#181818;stroke-width:0.5;" width="165.8447" x="1749.09" y="510.9669"/><text fill="#000000" font-family="sans-serif" font-size="14" lengthAdjust="spacing" textLength="61.6396" x="1801.1925" y="533.962">DD014.2</text><text fill="#000000" font-family="sans-serif" font-size="14" lengthAdjust="spacing" textLength="131.8105" x="1766.1071" y="550.2589">Mesh deformation:</text><text fill="#000000" font-family="sans-serif" font-size="14" lengthAdjust="spacing" textLength="145.8447" x="1759.09" y="566.5557">SPH -&gt; Virtual Worm</text></g><!--link dd001 to dd013--><g class="link" data-entity-1="ent0002" data-entity-2="ent0013" data-link-type="dependency" data-source-line="25" id="lnk18"><path d="M335.25,79.1969 C340.91,79.6769 346.5,80.1469 352.01,80.5869 C843.29,120.4169 1427.5303,155.8548 1645.6003,168.6748" fill="none" id="dd001-to-dd013" style="stroke:#181818;stroke-width:2;"/><polygon fill="#181818" points="1651.59,169.0269,1642.8403,164.5056,1646.5986,168.7334,1642.3708,172.4918,1651.59,169.0269" style="stroke:#181818;stroke-width:2;"/></g><!--link dd002 to dd013--><g class="link" data-entity-1="ent0003" data-entity-2="ent0013" data-link-type="dependency" data-source-line="26" id="lnk19"><path d="M644.27,78.8969 C649.93,79.4769 655.52,80.0469 661.01,80.5869 C1028.94,117.0369 1462.3988,152.2527 1645.4088,166.7627" fill="none" id="dd002-to-dd013" style="stroke:#181818;stroke-width:2;"/><polygon fill="#181818" points="1651.39,167.2369,1642.7343,162.5381,1646.4056,166.8417,1642.102,170.513,1651.39,167.2369" style="stroke:#181818;stroke-width:2;"/></g><!--link dd003 to dd013--><g class="link" data-entity-1="ent0004" data-entity-2="ent0013" data-link-type="dependency" data-source-line="27" id="lnk20"><path d="M915.68,78.4769 C921.54,79.1969 927.34,79.9069 933.01,80.5869 C1194.55,112.2569 1498.2081,146.922 1645.6481,163.612" fill="none" id="dd003-to-dd013" style="stroke:#181818;stroke-width:2;"/><polygon fill="#181818" points="1651.61,164.2869,1643.117,159.2999,1646.6417,163.7245,1642.2172,167.2492,1651.61,164.2869" style="stroke:#181818;stroke-width:2;"/></g><!--link dd004 to dd013--><g class="link" data-entity-1="ent0005" data-entity-2="ent0013" data-link-type="dependency" data-source-line="28" id="lnk21"><path d="M1178.28,81.0869 C1309.47,102.8769 1524.1811,138.5238 1645.5611,158.6838" fill="none" id="dd004-to-dd013" style="stroke:#181818;stroke-width:2;"/><polygon fill="#181818" points="1651.48,159.6669,1643.257,154.2463,1646.5476,158.8476,1641.9462,162.1382,1651.48,159.6669" style="stroke:#181818;stroke-width:2;"/></g><!--link dd005 to dd013--><g class="link" data-entity-1="ent0006" data-entity-2="ent0013" data-link-type="dependency" data-source-line="29" id="lnk22"><path d="M1432.93,81.0869 C1491.88,99.0469 1578.2104,125.3484 1645.8004,145.9384" fill="none" id="dd005-to-dd013" style="stroke:#181818;stroke-width:2;"/><polygon fill="#181818" points="1651.54,147.6869,1644.0963,141.2378,1646.757,146.2298,1641.765,148.8906,1651.54,147.6869" style="stroke:#181818;stroke-width:2;"/></g><!--link dd006 to dd013--><g class="link" data-entity-1="ent0007" data-entity-2="ent0013" data-link-type="dependency" data-source-line="30" id="lnk23"><path d="M1738.01,80.7269 C1738.01,96.6369 1738.01,114.6969 1738.01,134.4069" fill="none" id="dd006-to-dd013" style="stroke:#181818;stroke-width:2;"/><polygon fill="#181818" points="1738.01,140.4069,1742.01,131.4069,1738.01,135.4069,1734.01,131.4069,1738.01,140.4069" style="stroke:#181818;stroke-width:2;"/></g><!--link dd007 to dd013--><g class="link" data-entity-1="ent0008" data-entity-2="ent0013" data-link-type="dependency" data-source-line="31" id="lnk24"><path d="M2054.02,81.0869 C1992.02,99.3269 1900.4262,126.2639 1830.1462,146.9339" fill="none" id="dd007-to-dd013" style="stroke:#181818;stroke-width:2;"/><polygon fill="#181818" points="1824.39,148.6269,1834.1529,149.9249,1829.1868,147.2161,1831.8957,142.25,1824.39,148.6269" style="stroke:#181818;stroke-width:2;"/></g><!--link dd009 to dd013--><g class="link" data-entity-1="ent0009" data-entity-2="ent0013" data-link-type="dependency" data-source-line="32" id="lnk25"><path d="M2332.2,81.0869 C2190.98,103.1769 1958.0779,139.6094 1830.4479,159.5794" fill="none" id="dd009-to-dd013" style="stroke:#181818;stroke-width:2;"/><polygon fill="#181818" points="1824.52,160.5069,1834.0302,163.0675,1829.4599,159.7339,1832.7935,155.1637,1824.52,160.5069" style="stroke:#181818;stroke-width:2;"/></g><!--link dd018 to dd013--><g class="link" data-entity-1="ent0010" data-entity-2="ent0013" data-link-type="dependency" data-source-line="33" id="lnk26"><path d="M2624.68,81.0869 C2396.92,104.9669 2005.0173,146.0513 1830.3473,164.3613" fill="none" id="dd018-to-dd013" style="stroke:#181818;stroke-width:2;"/><polygon fill="#181818" points="1824.38,164.9869,1833.748,168.0268,1829.3528,164.4656,1832.9139,160.0704,1824.38,164.9869" style="stroke:#181818;stroke-width:2;"/></g><!--link dd019 to dd013--><g class="link" data-entity-1="ent0011" data-entity-2="ent0013" data-link-type="dependency" data-source-line="34" id="lnk27"><path d="M3003.72,78.8969 C2998.08,79.4869 2992.49,80.0569 2987.01,80.5869 C2550.92,123.0269 2033.5089,156.1927 1830.4289,168.5427" fill="none" id="dd019-to-dd013" style="stroke:#181818;stroke-width:2;"/><polygon fill="#181818" points="1824.44,168.9069,1833.6662,172.3532,1829.4308,168.6034,1833.1806,164.3679,1824.44,168.9069" style="stroke:#181818;stroke-width:2;"/></g><!--link dd010 to dd013--><g class="link" data-entity-1="ent0012" data-entity-2="ent0013" data-link-type="dependency" data-source-line="35" id="lnk28"><path d="M3290.45,78.6769 C3284.55,79.3669 3278.71,80.0169 3273.01,80.5869 C2722.82,136.2369 2064.0963,162.7965 1830.3263,170.9965" fill="none" id="dd010-to-dd013" style="stroke:#181818;stroke-width:2;"/><polygon fill="#181818" points="1824.33,171.2069,1833.4647,174.8889,1829.3269,171.0316,1833.1842,166.8938,1824.33,171.2069" style="stroke:#181818;stroke-width:2;"/></g><!--link dd013 to zarr--><g class="link" data-entity-1="ent0013" data-entity-2="ent0014" data-link-type="dependency" data-source-line="37" id="lnk29"><path d="M1738.01,209.7469 C1738.01,228.6669 1738.01,245.8969 1738.01,263.2969" fill="none" id="dd013-to-zarr" style="stroke:#181818;stroke-width:2;"/><polygon fill="#181818" points="1738.01,269.2969,1742.01,260.2969,1738.01,264.2969,1734.01,260.2969,1738.01,269.2969" style="stroke:#181818;stroke-width:2;"/></g><!--link zarr to dd014--><g class="link" data-entity-1="ent0014" data-entity-2="ent0015" data-link-type="dependency" data-source-line="38" id="lnk30"><path d="M1738.01,322.5469 C1738.01,339.8669 1738.01,356.8869 1738.01,375.6869" fill="none" id="zarr-to-dd014" style="stroke:#181818;stroke-width:2;"/><polygon fill="#181818" points="1738.01,381.6869,1742.01,372.6869,1738.01,376.6869,1734.01,372.6869,1738.01,381.6869" style="stroke:#181818;stroke-width:2;"/></g><!--link dd014 to dd0141--><g class="link" data-entity-1="ent0015" data-entity-2="ent0016" data-link-type="dependency" data-source-line="39" id="lnk31"><path d="M1713.33,451.1969 C1699.88,469.5469 1686.8167,487.3674 1673.3467,505.7474" fill="none" id="dd014-to-dd0141" style="stroke:#181818;stroke-width:2;"/><polygon fill="#181818" points="1669.8,510.5869,1678.3464,505.6921,1672.7556,506.5539,1671.8937,500.9631,1669.8,510.5869" style="stroke:#181818;stroke-width:2;"/></g><!--link dd014 to dd0142--><g class="link" data-entity-1="ent0015" data-entity-2="ent0017" data-link-type="dependency" data-source-line="40" id="lnk32"><path d="M1762.95,451.1969 C1776.55,469.5469 1789.7578,487.3862 1803.3778,505.7662" fill="none" id="dd014-to-dd0142" style="stroke:#181818;stroke-width:2;"/><polygon fill="#181818" points="1806.95,510.5869,1804.8054,500.9743,1803.9731,506.5696,1798.3778,505.7373,1806.95,510.5869" style="stroke:#181818;stroke-width:2;"/></g><?plantuml-src TPHDRvj048Rl_8fHScca9e2DdPX39JV1wYLgf5Yjr59PQvZYRPPPjBlO8R--2pJWsY0aG2yppmxpfLyu5Kon7BOiUScKB2czbq8gk5n5zUNepYB5twmKPeslPYbuHZcIWSJUK1rPBPMIX_ME9o-4MiF4SGmt0k5-npX14C9I27WkjxhI1dCDrv_W6zSb4_oD6Iu9FdnzZAv_CAKWUYsaCbUEep0nZ39BkNXuy3m_1C9ICU7kfJ0iG_SZ94malCpjMo4rhq7QlG2c8Ksj0rmkl2XQUAUaIGXvgHE1BaiCtpS17C4wm6GCC0rXAzFAxG_z2AOgyEZmwPXlyCytGI4sFDKk_7pQCOqG_EgS0rk7LHHydfqwpxeSr0z9cqGmtIFy7Z4RGynRX2omC3or8IUIwd8grlx9EslIi-PZhDiGYXrJ5RswHPaNdBADDinW1vdsaDino284Rhj96qxeljTW0B0O0VXt8M2M2LRPyzssi9kZmfwZ_Binb8r58scfAbVRZ70QI8S_6eWNmjvsTDgUgx3kuxubVA_pEtMSmhF10e9jJ3cp0w8sjZnqa2g_AQgOkj70PZGwuBG6hXRtmJ5FbgOeZTi1tgoZ6rC_Nzf8XLSDfFu6bv5NNwSn1J6jxMIZkzufn9i_6lOS3wXYKiXI3OnIK4WfAjq5PFiskekMg_aPxCQFgTqmEIlgHWbZQch4JLKlWtsp37gGFqwQnFI8UbSl9lj_JQujxFdfIxjKbB4W-6u_zRH9HtFQnN2ToWDPyoQBJZlhvzfqG0i6jDc0DX_GRWUqnRbcs_DS6xBpJZIdROftiQwkqvJus2nmsahzf_b3ukGl?></g></svg>